<svg width="16" height="16" viewBox="0 0 16 16" fill="none" xmlns="http://www.w3.org/2000/svg">
<path fill-rule="evenodd" clip-rule="evenodd" d="M1.6266 1.62618V1.62888C1.57835 2.17242 1.54384 2.71709 1.5231 3.26238C1.4709 4.57638 1.4781 6.13608 1.6509 7.29438C1.66579 7.36669 1.70255 7.43267 1.7562 7.48338L8.7348 14.462C8.81919 14.5463 8.93363 14.5937 9.05295 14.5937C9.17228 14.5937 9.28671 14.5463 9.3711 14.462L14.4624 9.37068C14.5468 9.28629 14.5942 9.17185 14.5942 9.05253C14.5942 8.93321 14.5468 8.81877 14.4624 8.73438L7.4838 1.75578C7.43309 1.70213 7.36711 1.66537 7.2948 1.65048C6.1365 1.47768 4.5768 1.47048 3.2628 1.52268C2.71752 1.54342 2.17284 1.57793 1.6293 1.62618H1.6266ZM0.831002 0.83058C0.743702 0.91338 0.390902 4.94088 0.761702 7.42758C0.801302 7.69218 0.932702 7.93158 1.1217 8.12058L8.0994 15.0992C8.35256 15.3523 8.69588 15.4944 9.05385 15.4944C9.41182 15.4944 9.75514 15.3523 10.0083 15.0992L15.0996 10.0079C15.3527 9.75472 15.4949 9.4114 15.4949 9.05343C15.4949 8.69546 15.3527 8.35214 15.0996 8.09898L8.1201 1.11858C7.93306 0.928216 7.6904 0.80216 7.4271 0.75858C4.9404 0.38868 0.912902 0.74058 0.830102 0.82878" fill="#575757"/>
<path fill-rule="evenodd" clip-rule="evenodd" d="M5.3184 5.39433C5.27542 5.43584 5.24114 5.48549 5.21756 5.54039C5.19397 5.5953 5.18156 5.65434 5.18104 5.71409C5.18052 5.77385 5.19191 5.8331 5.21453 5.8884C5.23716 5.94371 5.27057 5.99395 5.31282 6.0362C5.35508 6.07846 5.40532 6.11187 5.46062 6.13449C5.51593 6.15712 5.57518 6.16851 5.63493 6.16799C5.69468 6.16747 5.75373 6.15506 5.80863 6.13147C5.86354 6.10789 5.91319 6.0736 5.9547 6.03063C6.03667 5.94575 6.08203 5.83208 6.08101 5.71409C6.07998 5.59611 6.03265 5.48324 5.94922 5.39981C5.86579 5.31637 5.75292 5.26905 5.63493 5.26802C5.51694 5.267 5.40327 5.31235 5.3184 5.39433ZM4.683 6.66692C4.55188 6.54296 4.44694 6.39397 4.37439 6.22875C4.30184 6.06354 4.26314 5.88545 4.26059 5.70503C4.25804 5.5246 4.29168 5.34549 4.35953 5.17829C4.42739 5.01109 4.52807 4.85919 4.65563 4.73157C4.7832 4.60395 4.93505 4.50319 5.10222 4.43526C5.26939 4.36733 5.44848 4.3336 5.62891 4.33606C5.80933 4.33853 5.98743 4.37714 6.15268 4.44962C6.31793 4.52209 6.46698 4.62696 6.591 4.75803C6.83263 5.01336 6.96513 5.35288 6.96033 5.70439C6.95552 6.0559 6.81379 6.39167 6.56527 6.64031C6.31675 6.88894 5.98105 7.03083 5.62954 7.0358C5.27803 7.04077 4.93845 6.90843 4.683 6.66692Z" fill="#575757"/>
</svg>
