<svg width="19" height="18" viewBox="0 0 19 18" fill="none" xmlns="http://www.w3.org/2000/svg">
<g clip-path="url(#clip0_349_1402)">
<path d="M14.5 15H3.5V4H10.11L11.11 3H3.5C3.23478 3 2.98043 3.10536 2.79289 3.29289C2.60536 3.48043 2.5 3.73478 2.5 4V15C2.5 15.2652 2.60536 15.5196 2.79289 15.7071C2.98043 15.8946 3.23478 16 3.5 16H14.5C14.7652 16 15.0196 15.8946 15.2071 15.7071C15.3946 15.5196 15.5 15.2652 15.5 15V7.5L14.5 8.5V15Z" fill="#575757"/>
<path d="M17.265 2.91961L15.58 1.23461C15.5052 1.15962 15.4164 1.10013 15.3186 1.05953C15.2208 1.01894 15.1159 0.998047 15.01 0.998047C14.9041 0.998047 14.7992 1.01894 14.7014 1.05953C14.6036 1.10013 14.5148 1.15962 14.44 1.23461L7.585 8.12961L7.03 10.5346C7.00636 10.6512 7.00884 10.7716 7.03728 10.8871C7.06572 11.0026 7.1194 11.1103 7.19446 11.2026C7.26953 11.2949 7.36411 11.3694 7.47141 11.4207C7.57871 11.4721 7.69605 11.499 7.815 11.4996C7.87648 11.5063 7.93852 11.5063 8 11.4996L10.425 10.9646L17.265 4.05961C17.34 3.98483 17.3995 3.89599 17.4401 3.79818C17.4807 3.70036 17.5016 3.59551 17.5016 3.48961C17.5016 3.38371 17.4807 3.27885 17.4401 3.18104C17.3995 3.08323 17.34 2.99439 17.265 2.91961ZM9.905 10.0396L8.075 10.4446L8.5 8.62961L13.66 3.43461L15.07 4.84461L9.905 10.0396ZM15.635 4.27961L14.225 2.86961L15 2.07961L16.42 3.49961L15.635 4.27961Z" fill="#575757"/>
</g>
<defs>
<clipPath id="clip0_349_1402">
<rect width="18" height="18" fill="white" transform="translate(0.5)"/>
</clipPath>
</defs>
</svg>
