<svg width="19" height="18" viewBox="0 0 19 18" fill="none" xmlns="http://www.w3.org/2000/svg">
<path d="M8 3H11C13.8284 3 15.2426 3 16.1213 3.87868C16.754 4.51134 16.9311 5.42162 16.9807 6.9375H2.01929C2.06889 5.42162 2.24602 4.51134 2.87868 3.87868C3.75736 3 5.17157 3 8 3Z" fill="#575757"/>
<path fill-rule="evenodd" clip-rule="evenodd" d="M16.9996 9.61314L16.6932 9.30676C16.0342 8.64775 14.9658 8.64775 14.3068 9.30676L13.7057 9.90784C13.4659 9.26796 12.8486 8.8125 12.125 8.8125C11.193 8.8125 10.4375 9.56802 10.4375 10.5V11.8229C10.0701 11.8637 9.7135 12.025 9.43176 12.3068C8.77275 12.9658 8.77275 14.0342 9.43176 14.6932L9.73851 15H8C5.17157 15 3.75736 15 2.87868 14.1213C2 13.2426 2 11.8284 2 9C2 8.66855 2 8.35652 2.00141 8.0625H16.9986C17 8.35652 17 8.66855 17 9C17 9.21222 17 9.41648 16.9996 9.61314ZM5 11.4375C4.68934 11.4375 4.4375 11.6893 4.4375 12C4.4375 12.3107 4.68934 12.5625 5 12.5625H8C8.31066 12.5625 8.5625 12.3107 8.5625 12C8.5625 11.6893 8.31066 11.4375 8 11.4375H5Z" fill="#575757"/>
<path fill-rule="evenodd" clip-rule="evenodd" d="M12.125 9.9375C12.4357 9.9375 12.6875 10.1893 12.6875 10.5V13.642L13.2273 13.1023C13.4469 12.8826 13.8031 12.8826 14.0227 13.1023C14.2424 13.3219 14.2424 13.6781 14.0227 13.8977L12.5227 15.3977C12.3031 15.6174 11.9469 15.6174 11.7273 15.3977L10.2273 13.8977C10.0076 13.6781 10.0076 13.3219 10.2273 13.1023C10.4469 12.8826 10.8031 12.8826 11.0227 13.1023L11.5625 13.642V10.5C11.5625 10.1893 11.8143 9.9375 12.125 9.9375ZM15.1023 10.1023C15.3219 9.88258 15.6781 9.88258 15.8977 10.1023L17.3977 11.6023C17.6174 11.8219 17.6174 12.1781 17.3977 12.3977C17.1781 12.6174 16.8219 12.6174 16.6023 12.3977L16.0625 11.858V15C16.0625 15.3107 15.8107 15.5625 15.5 15.5625C15.1893 15.5625 14.9375 15.3107 14.9375 15V11.858L14.3977 12.3977C14.1781 12.6174 13.8219 12.6174 13.6023 12.3977C13.3826 12.1781 13.3826 11.8219 13.6023 11.6023L15.1023 10.1023Z" fill="#575757"/>
</svg>
