<svg width="79" height="79" viewBox="0 0 79 79" fill="none" xmlns="http://www.w3.org/2000/svg">
<rect width="79" height="79" rx="39.5" fill="#ECFCE7"/>
<path fill-rule="evenodd" clip-rule="evenodd" d="M60.75 39.5C60.75 51.236 51.236 60.75 39.5 60.75C27.7639 60.75 18.25 51.236 18.25 39.5C18.25 27.7639 27.7639 18.25 39.5 18.25C51.236 18.25 60.75 27.7639 60.75 39.5ZM48.0645 33.0605C48.6868 33.6829 48.6868 34.6921 48.0645 35.3145L37.4395 45.9395C36.8171 46.5618 35.8079 46.5618 35.1855 45.9395L30.9355 41.6895C30.3132 41.0671 30.3132 40.0579 30.9355 39.4355C31.5579 38.8131 32.5671 38.8131 33.1895 39.4355L36.3125 42.5586L41.0615 37.8096L45.8105 33.0605C46.4329 32.4382 47.4421 32.4382 48.0645 33.0605Z" fill="#2CA00C"/>
</svg>
