<svg width="31" height="31" viewBox="0 0 31 31" fill="none" xmlns="http://www.w3.org/2000/svg">
<path d="M0.5 15.5C0.5 7.21573 7.21573 0.5 15.5 0.5C23.7843 0.5 30.5 7.21573 30.5 15.5C30.5 23.7843 23.7843 30.5 15.5 30.5C7.21573 30.5 0.5 23.7843 0.5 15.5Z" fill="#DEF9FF"/>
<path d="M14 9.5H17C19.8284 9.5 21.2426 9.5 22.1213 10.3787C22.754 11.0113 22.9311 11.9216 22.9807 13.4375H8.01929C8.06889 11.9216 8.24602 11.0113 8.87868 10.3787C9.75736 9.5 11.1716 9.5 14 9.5Z" fill="#43C0D8"/>
<path fill-rule="evenodd" clip-rule="evenodd" d="M22.9996 16.1131L22.6932 15.8068C22.0342 15.1477 20.9658 15.1477 20.3068 15.8068L19.7057 16.4078C19.4659 15.768 18.8486 15.3125 18.125 15.3125C17.193 15.3125 16.4375 16.068 16.4375 17V18.3229C16.0701 18.3637 15.7135 18.525 15.4318 18.8068C14.7727 19.4658 14.7727 20.5342 15.4318 21.1932L15.7385 21.5H14C11.1716 21.5 9.75736 21.5 8.87868 20.6213C8 19.7426 8 18.3284 8 15.5C8 15.1686 8 14.8565 8.00141 14.5625H22.9986C23 14.8565 23 15.1686 23 15.5C23 15.7122 23 15.9165 22.9996 16.1131ZM11 17.9375C10.6893 17.9375 10.4375 18.1893 10.4375 18.5C10.4375 18.8107 10.6893 19.0625 11 19.0625H14C14.3107 19.0625 14.5625 18.8107 14.5625 18.5C14.5625 18.1893 14.3107 17.9375 14 17.9375H11Z" fill="#43C0D8"/>
<path fill-rule="evenodd" clip-rule="evenodd" d="M18.125 16.4375C18.4357 16.4375 18.6875 16.6893 18.6875 17V20.142L19.2273 19.6023C19.4469 19.3826 19.8031 19.3826 20.0227 19.6023C20.2424 19.8219 20.2424 20.1781 20.0227 20.3977L18.5227 21.8977C18.3031 22.1174 17.9469 22.1174 17.7273 21.8977L16.2273 20.3977C16.0076 20.1781 16.0076 19.8219 16.2273 19.6023C16.4469 19.3826 16.8031 19.3826 17.0227 19.6023L17.5625 20.142V17C17.5625 16.6893 17.8143 16.4375 18.125 16.4375ZM21.1023 16.6023C21.3219 16.3826 21.6781 16.3826 21.8977 16.6023L23.3977 18.1023C23.6174 18.3219 23.6174 18.6781 23.3977 18.8977C23.1781 19.1174 22.8219 19.1174 22.6023 18.8977L22.0625 18.358V21.5C22.0625 21.8107 21.8107 22.0625 21.5 22.0625C21.1893 22.0625 20.9375 21.8107 20.9375 21.5V18.358L20.3977 18.8977C20.1781 19.1174 19.8219 19.1174 19.6023 18.8977C19.3826 18.6781 19.3826 18.3219 19.6023 18.1023L21.1023 16.6023Z" fill="#43C0D8"/>
</svg>
