<svg width="30" height="31" viewBox="0 0 30 31" fill="none" xmlns="http://www.w3.org/2000/svg">
<path d="M0 15.5C0 7.21573 6.71573 0.5 15 0.5C23.2843 0.5 30 7.21573 30 15.5C30 23.7843 23.2843 30.5 15 30.5C6.71573 30.5 0 23.7843 0 15.5Z" fill="#F4EAFF"/>
<path fill-rule="evenodd" clip-rule="evenodd" d="M22.5 12.7201C22.5 15.3269 20.3781 17.4402 17.7606 17.4402C17.2829 17.4402 16.1954 17.3304 15.6664 16.8913L15.005 17.5499C14.6162 17.9372 14.7212 18.0512 14.8942 18.239C14.9664 18.3174 15.0504 18.4086 15.1153 18.5378C15.1153 18.5378 15.6664 19.3062 15.1153 20.0746C14.7846 20.5137 13.8588 21.1284 12.8007 20.0746L12.5802 20.2942C12.5802 20.2942 13.2415 21.0625 12.6904 21.8309C12.3598 22.27 11.478 22.7091 10.7065 21.9407L9.93495 22.7091C9.40589 23.236 8.75929 22.9286 8.50212 22.7091L7.8408 22.0505C7.22357 21.4358 7.58363 20.7698 7.8408 20.5137L13.5722 14.8057C13.5722 14.8057 13.0211 13.9275 13.0211 12.7201C13.0211 10.1133 15.143 8 17.7606 8C20.3781 8 22.5 10.1133 22.5 12.7201ZM17.7607 14.3667C18.6738 14.3667 19.414 13.6295 19.414 12.7201C19.414 11.8108 18.6738 11.0736 17.7607 11.0736C16.8476 11.0736 16.1074 11.8108 16.1074 12.7201C16.1074 13.6295 16.8476 14.3667 17.7607 14.3667Z" fill="#9242E2"/>
</svg>
