<svg width="31" height="31" viewBox="0 0 31 31" fill="none" xmlns="http://www.w3.org/2000/svg">
<path d="M0.5 15.5C0.5 7.21573 7.21573 0.5 15.5 0.5C23.7843 0.5 30.5 7.21573 30.5 15.5C30.5 23.7843 23.7843 30.5 15.5 30.5C7.21573 30.5 0.5 23.7843 0.5 15.5Z" fill="#F4F1FB"/>
<path fill-rule="evenodd" clip-rule="evenodd" d="M8.02087 14.9375C8.30852 11.0581 11.5472 8 15.5001 8C14.877 8 14.3221 8.27316 13.8657 8.69085C13.4116 9.10644 13.0278 9.68658 12.7174 10.3724C12.4051 11.0622 12.1626 11.869 11.9984 12.7446C11.8669 13.4465 11.7868 14.1864 11.7601 14.9375H8.02087ZM8.02087 16.0625H11.7601C11.7868 16.8136 11.8669 17.5535 11.9984 18.2554C12.1626 19.131 12.4051 19.9378 12.7174 20.6276C13.0278 21.3134 13.4116 21.8936 13.8657 22.3092C14.3221 22.7268 14.877 23 15.5001 23C11.5472 23 8.30852 19.9419 8.02087 16.0625Z" fill="#9271D9"/>
<path d="M15.5001 9.04651C15.2938 9.04651 15.0274 9.13427 14.7176 9.41781C14.4054 9.70345 14.093 10.1511 13.8169 10.761C13.5426 11.3669 13.32 12.0983 13.1667 12.9156C13.046 13.5593 12.9712 14.2416 12.9449 14.9375H18.0553C18.029 14.2416 17.9542 13.5593 17.8335 12.9156C17.6802 12.0983 17.4575 11.3669 17.1833 10.761C16.9072 10.1511 16.5948 9.70345 16.2826 9.41781C15.9728 9.13427 15.7064 9.04651 15.5001 9.04651Z" fill="#9271D9"/>
<path d="M13.1667 18.0844C13.32 18.9017 13.5426 19.6331 13.8169 20.239C14.093 20.8489 14.4054 21.2966 14.7175 21.5822C15.0274 21.8657 15.2938 21.9535 15.5001 21.9535C15.7064 21.9535 15.9728 21.8657 16.2826 21.5822C16.5948 21.2966 16.9072 20.8489 17.1833 20.239C17.4575 19.6331 17.6802 18.9017 17.8335 18.0844C17.9541 17.4407 18.029 16.7584 18.0553 16.0625H12.9449C12.9712 16.7584 13.046 17.4407 13.1667 18.0844Z" fill="#9271D9"/>
<path d="M15.5001 8C16.1232 8 16.6781 8.27316 17.1345 8.69085C17.5886 9.10644 17.9724 9.68658 18.2828 10.3724C18.5951 11.0622 18.8376 11.869 19.0018 12.7446C19.1333 13.4465 19.2134 14.1864 19.2401 14.9375H22.9793C22.6917 11.0581 19.453 8 15.5001 8Z" fill="#9271D9"/>
<path d="M19.0018 18.2554C18.8376 19.131 18.5951 19.9378 18.2828 20.6276C17.9724 21.3134 17.5886 21.8936 17.1345 22.3092C16.6781 22.7268 16.1232 23 15.5001 23C19.453 23 22.6917 19.9419 22.9793 16.0625H19.2401C19.2134 16.8136 19.1333 17.5535 19.0018 18.2554Z" fill="#9271D9"/>
</svg>
