<svg width="31" height="31" viewBox="0 0 31 31" fill="none" xmlns="http://www.w3.org/2000/svg">
<path d="M0.5 15.5C0.5 7.21573 7.21573 0.5 15.5 0.5C23.7843 0.5 30.5 7.21573 30.5 15.5C30.5 23.7843 23.7843 30.5 15.5 30.5C7.21573 30.5 0.5 23.7843 0.5 15.5Z" fill="#FFEDED"/>
<path fill-rule="evenodd" clip-rule="evenodd" d="M18.5938 15.5C18.5938 15.1893 18.342 14.9375 18.0313 14.9375L9.80192 14.9375L11.2724 13.6771C11.5083 13.4749 11.5356 13.1198 11.3334 12.8839C11.1312 12.6481 10.7761 12.6207 10.5403 12.8229L7.91526 15.0729C7.79059 15.1798 7.71883 15.3358 7.71883 15.5C7.71883 15.6642 7.79059 15.8202 7.91526 15.9271L10.5403 18.1771C10.7761 18.3793 11.1312 18.3519 11.3334 18.1161C11.5356 17.8802 11.5083 17.5251 11.2724 17.3229L9.80192 16.0625L18.0313 16.0625C18.342 16.0625 18.5938 15.8107 18.5938 15.5Z" fill="#CE2828"/>
<path d="M13.5313 12.5C13.5313 13.0266 13.5313 13.29 13.6577 13.4791C13.7124 13.561 13.7828 13.6314 13.8647 13.6861C14.0538 13.8125 14.3172 13.8125 14.8438 13.8125L18.0313 13.8125C18.9633 13.8125 19.7188 14.568 19.7188 15.5C19.7188 16.432 18.9633 17.1875 18.0313 17.1875L14.8439 17.1875C14.3172 17.1875 14.0538 17.1875 13.8646 17.3139C13.7828 17.3686 13.7125 17.4389 13.6577 17.5208C13.5313 17.7099 13.5313 17.9733 13.5313 18.5C13.5313 20.6213 13.5313 21.682 14.1903 22.341C14.8494 23 15.9098 23 18.0312 23L18.7812 23C20.9025 23 21.9631 23 22.6222 22.341C23.2812 21.682 23.2812 20.6213 23.2812 18.5L23.2812 12.5C23.2812 10.3787 23.2812 9.31802 22.6222 8.65901C21.9631 8 20.9025 8 18.7812 8L18.0312 8C15.9098 8 14.8494 8 14.1903 8.65901C13.5313 9.31802 13.5313 10.3787 13.5313 12.5Z" fill="#CE2828"/>
</svg>
