<svg width="79" height="79" viewBox="0 0 79 79" fill="none" xmlns="http://www.w3.org/2000/svg">
<rect width="79" height="79" rx="39.5" fill="#FFF2E7"/>
<path d="M39.5 60.75C29.4827 60.75 24.474 60.75 21.362 57.638C18.25 54.526 18.25 49.5173 18.25 39.5C18.25 29.4827 18.25 24.474 21.362 21.362C24.474 18.25 29.4827 18.25 39.5 18.25C42.4724 18.25 45.0038 18.25 47.1755 18.3313C45.7041 20.0131 44.8125 22.2149 44.8125 24.625C44.8125 29.9062 49.0938 34.1875 54.375 34.1875C56.7851 34.1875 58.9869 33.2959 60.6687 31.8245C60.75 33.9962 60.75 36.5276 60.75 39.5C60.75 49.5173 60.75 54.526 57.638 57.638C54.526 60.75 49.5173 60.75 39.5 60.75Z" fill="#E19653"/>
<path d="M60.75 24.625C60.75 28.1458 57.8958 31 54.375 31C50.8542 31 48 28.1458 48 24.625C48 21.1042 50.8542 18.25 54.375 18.25C57.8958 18.25 60.75 21.1042 60.75 24.625Z" fill="#E19653"/>
</svg>
