<svg width="68" height="68" viewBox="0 0 68 68" fill="none" xmlns="http://www.w3.org/2000/svg">
<path d="M0 34C0 15.2223 15.2223 0 34 0C52.7777 0 68 15.2223 68 34C68 52.7777 52.7777 68 34 68C15.2223 68 0 52.7777 0 34Z" fill="#4391DE"/>
<path d="M42 42C42 39.79 35.732 38 28 38M42 42C42 44.21 35.732 46 28 46C20.268 46 14 44.21 14 42M42 42V51.874C42 54.152 35.732 56 28 56C20.268 56 14 54.154 14 51.874V42M42 42C49.648 42 56 40.026 56 38V18M28 38C20.268 38 14 39.79 14 42M28 38C19.164 38 12 36.026 12 34V24M28 20C19.164 20 12 21.79 12 24M12 24C12 26.21 19.164 28 28 28C28 30.026 34.506 32 42.154 32C49.802 32 56 30.026 56 28M56 18C56 15.79 49.8 14 42.154 14C34.508 14 28.308 15.79 28.308 18M56 18C56 20.21 49.8 22 42.154 22C34.508 22 28.308 20.21 28.308 18M28.308 18V38.332" stroke="white" stroke-width="1.5"/>
</svg>
