<svg width="18" height="19" viewBox="0 0 18 19" fill="none" xmlns="http://www.w3.org/2000/svg">
<path fill-rule="evenodd" clip-rule="evenodd" d="M2.53314 4.31181C2.25 4.71521 2.25 5.9143 2.25 8.31249V9.49352C2.25 13.7221 5.42922 15.7741 7.42392 16.6455C7.96501 16.8818 8.23556 17 9 17C9.76444 17 10.035 16.8818 10.5761 16.6455C12.5708 15.7741 15.75 13.7221 15.75 9.49352V8.31249C15.75 5.9143 15.75 4.71521 15.4669 4.31181C15.1837 3.9084 14.0563 3.52247 11.8013 2.75059L11.3717 2.60354C10.1963 2.20118 9.60854 2 9 2C8.39146 2 7.80374 2.20118 6.62829 2.60354L6.19868 2.75059C3.94374 3.52247 2.81627 3.9084 2.53314 4.31181ZM10.125 11.75C10.125 12.1642 9.78921 12.5 9.375 12.5H8.625C8.21079 12.5 7.875 12.1642 7.875 11.75V10.699C7.20247 10.31 6.75 9.58282 6.75 8.75C6.75 7.50736 7.75736 6.5 9 6.5C10.2426 6.5 11.25 7.50736 11.25 8.75C11.25 9.58282 10.7975 10.31 10.125 10.699V11.75Z" fill="#CE7728"/>
</svg>
