<svg width="31" height="31" viewBox="0 0 31 31" fill="none" xmlns="http://www.w3.org/2000/svg">
<path d="M0.403198 15.5C0.403198 7.21573 7.11893 0.5 15.4032 0.5C23.6875 0.5 30.4032 7.21573 30.4032 15.5C30.4032 23.7843 23.6875 30.5 15.4032 30.5C7.11893 30.5 0.403198 23.7843 0.403198 15.5Z" fill="#FFF1F4"/>
<path d="M12.7782 14.1875C12.0533 14.1875 11.4657 14.7751 11.4657 15.5C11.4657 16.2249 12.0533 16.8125 12.7782 16.8125C13.5031 16.8125 14.0907 16.2249 14.0907 15.5C14.0907 14.7751 13.5031 14.1875 12.7782 14.1875Z" fill="#D94165"/>
<path fill-rule="evenodd" clip-rule="evenodd" d="M7.9032 15.5C7.9032 11.9645 7.9032 10.1967 9.00155 9.09835C10.0999 8 11.8677 8 15.4032 8C18.9387 8 20.7065 8 21.8048 9.09835C22.9032 10.1967 22.9032 11.9645 22.9032 15.5C22.9032 19.0355 22.9032 20.8033 21.8048 21.9017C20.7065 23 18.9387 23 15.4032 23C11.8677 23 10.0999 23 9.00155 21.9017C7.9032 20.8033 7.9032 19.0355 7.9032 15.5ZM15.1505 14.9375C14.8965 13.8625 13.9308 13.0625 12.7782 13.0625C11.432 13.0625 10.3407 14.1538 10.3407 15.5C10.3407 16.8462 11.432 17.9375 12.7782 17.9375C13.9308 17.9375 14.8965 17.1375 15.1505 16.0625H17.4657V16.625C17.4657 16.9357 17.7175 17.1875 18.0282 17.1875C18.3389 17.1875 18.5907 16.9357 18.5907 16.625V16.0625H19.1532C19.2568 16.0625 19.3407 16.1464 19.3407 16.25V17C19.3407 17.3107 19.5925 17.5625 19.9032 17.5625C20.2139 17.5625 20.4657 17.3107 20.4657 17V16.25C20.4657 15.5251 19.8781 14.9375 19.1532 14.9375H15.1505Z" fill="#D94165"/>
</svg>
