<svg width="30" height="31" viewBox="0 0 30 31" fill="none" xmlns="http://www.w3.org/2000/svg">
<path d="M0 15.5C0 7.21573 6.71573 0.5 15 0.5C23.2843 0.5 30 7.21573 30 15.5C30 23.7843 23.2843 30.5 15 30.5C6.71573 30.5 0 23.7843 0 15.5Z" fill="#556CFC"/>
<path d="M10.5 22.25V20.75L11.25 20H9C8.5875 20 8.2345 19.8533 7.941 19.5597C7.6475 19.2662 7.5005 18.913 7.5 18.5V10.25C7.5 9.8375 7.647 9.4845 7.941 9.191C8.235 8.8975 8.588 8.7505 9 8.75H21C21.4125 8.75 21.7657 8.897 22.0597 9.191C22.3538 9.485 22.5005 9.838 22.5 10.25V18.5C22.5 18.9125 22.3533 19.2657 22.0597 19.5597C21.7662 19.8538 21.413 20.0005 21 20H18.75L19.5 20.75V22.25H10.5ZM9 18.5H21V10.25H9V18.5Z" fill="white"/>
</svg>
