<svg width="30" height="31" viewBox="0 0 30 31" fill="none" xmlns="http://www.w3.org/2000/svg">
<path d="M0 15.5C0 7.21573 6.71573 0.5 15 0.5C23.2843 0.5 30 7.21573 30 15.5C30 23.7843 23.2843 30.5 15 30.5C6.71573 30.5 0 23.7843 0 15.5Z" fill="#01BFA5"/>
<path d="M10.3463 17.2297L9.01725 15.8984L7.6875 17.2297M19.6537 13.7954L20.9827 15.1274L22.3125 13.7954" stroke="#FFFBFB" stroke-width="1.125" stroke-linecap="round" stroke-linejoin="round"/>
<path d="M20.9828 15.1273C20.9828 13.5373 20.3528 12.014 19.2308 10.8898C18.6756 10.3335 18.0162 9.89211 17.2902 9.59096C16.5643 9.28982 15.786 9.13479 15.0001 9.13477C14.2366 9.13416 13.4803 9.28111 12.7726 9.56752C11.9826 9.88427 11.2692 10.3659 10.6801 10.9802C10.091 11.5945 9.63971 12.3274 9.35633 13.13M9.01733 15.8975C9.01849 17.2884 9.50285 18.6357 10.3876 19.709C11.2714 20.781 12.5009 21.5117 13.865 21.7754C15.2291 22.0392 16.6424 21.8195 17.8621 21.1543C19.0817 20.4876 20.0321 19.4183 20.5508 18.1288" stroke="#FFFBFB" stroke-width="1.125" stroke-linecap="round" stroke-linejoin="round"/>
<path d="M13.1851 16.9835C13.2241 17.4288 13.4359 17.841 13.7751 18.132C14.1144 18.423 14.5541 18.5697 15.0001 18.5405C16.4641 18.5405 16.8151 17.6983 16.8151 16.9835C16.8151 16.2688 16.2098 15.5113 15.0001 15.5113C13.7903 15.5113 13.1851 15.0328 13.1851 14.0578C13.2019 13.7199 13.3212 13.3952 13.5271 13.1268C13.733 12.8584 14.0158 12.6592 14.3378 12.5555C14.5516 12.4865 14.7766 12.4618 15.0001 12.4828C15.4466 12.4634 15.8837 12.6158 16.2213 12.9088C16.5589 13.2017 16.7714 13.6129 16.8151 14.0578M15.0001 19.448V18.6598M15.0001 11.5723V12.4798" stroke="#FFFBFB" stroke-width="1.125" stroke-linecap="round" stroke-linejoin="round"/>
</svg>
