<svg width="31" height="31" viewBox="0 0 31 31" fill="none" xmlns="http://www.w3.org/2000/svg">
<path d="M0.5 15.5C0.5 7.21573 7.21573 0.5 15.5 0.5C23.7843 0.5 30.5 7.21573 30.5 15.5C30.5 23.7843 23.7843 30.5 15.5 30.5C7.21573 30.5 0.5 23.7843 0.5 15.5Z" fill="#F44236"/>
<path d="M10.5544 8.2998H10.5427C10.4884 8.30095 10.4347 8.31193 10.3843 8.3322C10.3114 8.36106 10.2473 8.40847 10.1984 8.46972C10.1494 8.53097 10.1174 8.60394 10.1053 8.6814C10.0909 8.766 9.6499 11.5353 9.6499 12.7998C9.6499 13.6548 10.0477 14.4171 10.6669 14.9103C10.8919 15.0912 10.9999 15.2874 10.9999 15.4512V15.9012C10.9999 15.9174 10.999 15.9336 10.9972 15.9498C10.9729 16.1838 10.8613 17.2359 10.756 18.3177C10.6525 19.3842 10.5499 20.5227 10.5499 20.8998C10.5499 21.3772 10.7395 21.835 11.0771 22.1726C11.4147 22.5102 11.8725 22.6998 12.3499 22.6998C12.8273 22.6998 13.2851 22.5102 13.6227 22.1726C13.9603 21.835 14.1499 21.3772 14.1499 20.8998C14.1499 20.5218 14.0473 19.3842 13.9438 18.3177C13.8669 17.5284 13.7865 16.7393 13.7026 15.9507L13.6999 15.9012V15.4512C13.6999 15.2865 13.8079 15.0912 14.0329 14.9103C14.35 14.6575 14.6062 14.3365 14.7822 13.9711C14.9583 13.6057 15.0498 13.2054 15.0499 12.7998C15.0499 11.5326 14.6062 8.7507 14.5945 8.6805C14.5813 8.59592 14.5442 8.51686 14.4876 8.45262C14.431 8.38837 14.3572 8.3416 14.275 8.3178C14.2373 8.30676 14.1982 8.30071 14.1589 8.2998H14.1409H14.1418C14.0219 8.30075 13.9072 8.34906 13.8227 8.43419C13.7383 8.51932 13.6909 8.63439 13.6909 8.7543V12.3543C13.6921 12.4128 13.6818 12.471 13.6606 12.5255C13.6394 12.58 13.6076 12.6298 13.5671 12.6721C13.5266 12.7143 13.4782 12.7482 13.4246 12.7717C13.371 12.7953 13.3134 12.808 13.2549 12.8093C13.1963 12.8105 13.1382 12.8002 13.0836 12.779C13.0291 12.7577 12.9793 12.7259 12.9371 12.6855C12.8948 12.645 12.861 12.5965 12.8374 12.543C12.8139 12.4894 12.8011 12.4317 12.7999 12.3732V8.7498C12.7999 8.63046 12.7525 8.516 12.6681 8.43161C12.5837 8.34722 12.4692 8.2998 12.3499 8.2998C12.2306 8.2998 12.1161 8.34722 12.0317 8.43161C11.9473 8.516 11.8999 8.63046 11.8999 8.7498V12.3498L11.9008 12.3786C11.8976 12.4968 11.8476 12.6088 11.7617 12.6901C11.6759 12.7713 11.5613 12.8152 11.4432 12.812C11.325 12.8087 11.213 12.7587 11.1317 12.6729C11.0504 12.5871 11.0066 12.4725 11.0098 12.3543V8.7552C11.0098 8.63458 10.9619 8.51888 10.8767 8.43351C10.7915 8.34813 10.675 8.30004 10.5544 8.2998ZM16.3999 12.3498C16.3999 11.2757 16.8266 10.2455 17.5861 9.48602C18.3456 8.7265 19.3758 8.2998 20.4499 8.2998C20.5692 8.2998 20.6837 8.34722 20.7681 8.43161C20.8525 8.516 20.8999 8.63046 20.8999 8.7498V15.03L20.9179 15.2316C20.9881 16.0403 21.0564 16.8491 21.1231 17.658C21.2347 19.0143 21.3499 20.5029 21.3499 20.8998C21.3499 21.3772 21.1603 21.835 20.8227 22.1726C20.4851 22.5102 20.0273 22.6998 19.5499 22.6998C19.0725 22.6998 18.6147 22.5102 18.2771 22.1726C17.9395 21.835 17.7499 21.3772 17.7499 20.8998C17.7499 20.5038 17.8651 19.0143 17.9767 17.658C18.0325 16.9731 18.0892 16.3107 18.1315 15.8202L18.1585 15.4998H17.7499C17.3919 15.4998 17.0485 15.3576 16.7953 15.1044C16.5421 14.8512 16.3999 14.5078 16.3999 14.1498V12.3498Z" fill="white"/>
</svg>
