<svg width="31" height="31" viewBox="0 0 31 31" fill="none" xmlns="http://www.w3.org/2000/svg">
<path d="M0.5 15.5C0.5 7.21573 7.21573 0.5 15.5 0.5C23.7843 0.5 30.5 7.21573 30.5 15.5C30.5 23.7843 23.7843 30.5 15.5 30.5C7.21573 30.5 0.5 23.7843 0.5 15.5Z" fill="#FFAD25"/>
<path d="M23 13.25L15.5 7.25L8 13.25V14.75H9.5V22.25H13.25V19.25C13.25 18.6533 13.4871 18.081 13.909 17.659C14.331 17.2371 14.9033 17 15.5 17C16.0967 17 16.669 17.2371 17.091 17.659C17.5129 18.081 17.75 18.6533 17.75 19.25V22.25H21.5V14.75H23V13.25Z" fill="white"/>
</svg>
