<svg width="31" height="31" viewBox="0 0 31 31" fill="none" xmlns="http://www.w3.org/2000/svg">
<path d="M0.5 15.5C0.5 7.21573 7.21573 0.5 15.5 0.5C23.7843 0.5 30.5 7.21573 30.5 15.5C30.5 23.7843 23.7843 30.5 15.5 30.5C7.21573 30.5 0.5 23.7843 0.5 15.5Z" fill="#FEDF00"/>
<g clip-path="url(#clip0_177_1610)">
<path d="M18.5 18.5C18.5 17.6712 16.1495 17 13.25 17M18.5 18.5C18.5 19.3288 16.1495 20 13.25 20C10.3505 20 8 19.3288 8 18.5M18.5 18.5V22.2028C18.5 23.057 16.1495 23.75 13.25 23.75C10.3505 23.75 8 23.0578 8 22.2028V18.5M18.5 18.5C21.368 18.5 23.75 17.7598 23.75 17V9.5M13.25 17C10.3505 17 8 17.6712 8 18.5M13.25 17C9.9365 17 7.25 16.2598 7.25 15.5V11.75M13.25 10.25C9.9365 10.25 7.25 10.9212 7.25 11.75M7.25 11.75C7.25 12.5788 9.9365 13.25 13.25 13.25C13.25 14.0098 15.6897 14.75 18.5577 14.75C21.4257 14.75 23.75 14.0098 23.75 13.25M23.75 9.5C23.75 8.67125 21.425 8 18.5577 8C15.6905 8 13.3655 8.67125 13.3655 9.5M23.75 9.5C23.75 10.3288 21.425 11 18.5577 11C15.6905 11 13.3655 10.3288 13.3655 9.5M13.3655 9.5V17.1245" stroke="white" stroke-width="1.5"/>
</g>
<defs>
<clipPath id="clip0_177_1610">
<rect width="18" height="18" fill="white" transform="translate(6.5 6.5)"/>
</clipPath>
</defs>
</svg>
