<svg width="31" height="31" viewBox="0 0 31 31" fill="none" xmlns="http://www.w3.org/2000/svg">
<path d="M0.5 15.5C0.5 7.21573 7.21573 0.5 15.5 0.5C23.7843 0.5 30.5 7.21573 30.5 15.5C30.5 23.7843 23.7843 30.5 15.5 30.5C7.21573 30.5 0.5 23.7843 0.5 15.5Z" fill="#FF3B80"/>
<g clip-path="url(#clip0_177_1602)">
<path d="M16.1428 23.8557V17.1057C16.1428 16.6794 16.3121 16.2707 16.6135 15.9693C16.9149 15.6679 17.3237 15.4985 17.75 15.4985C18.1762 15.4985 18.585 15.6679 18.8864 15.9693C19.1878 16.2707 19.3571 16.6794 19.3571 17.1057V20.6414H21.9285C22.6105 20.6414 23.2646 20.9123 23.7468 21.3945C24.229 21.8768 24.5 22.5308 24.5 23.2128V23.8557" fill="#FFF8F8"/>
<path fill-rule="evenodd" clip-rule="evenodd" d="M6.5398 12.1879C6.54124 11.369 6.71951 10.5602 7.0624 9.8166C7.4053 9.07301 7.90473 8.41225 8.52655 7.87949C9.14837 7.34673 9.87791 6.95454 10.6653 6.72974C11.4527 6.50493 12.2793 6.45282 13.0887 6.57697C13.898 6.70111 14.6711 6.99858 15.3549 7.44904C16.0387 7.89949 16.6171 8.49231 17.0507 9.18695C17.4842 9.88159 17.7627 10.6617 17.8669 11.4738C17.9712 12.286 17.8988 13.1111 17.6548 13.8927C16.8191 13.9175 16.026 14.2669 15.4437 14.8667C14.8613 15.4666 14.5356 16.2697 14.5357 17.1057V17.3873C13.6696 17.7721 12.7212 17.9344 11.7765 17.8594C10.8318 17.7844 9.92088 17.4745 9.12643 16.9579C8.33197 16.4413 7.67921 15.7344 7.22748 14.9013C6.77574 14.0683 6.53936 13.1355 6.5398 12.1879ZM12.2265 8.02474C12.6714 8.02474 13.0301 8.38474 13.0301 8.82831V9.19217C13.346 9.26493 13.6385 9.41616 13.8806 9.6319C14.1226 9.84764 14.3063 10.1209 14.4148 10.4265C14.45 10.526 14.4653 10.6315 14.4597 10.7369C14.4541 10.8423 14.4278 10.9456 14.3824 11.0409C14.3369 11.1362 14.2731 11.2216 14.1946 11.2922C14.1161 11.3628 14.0245 11.4173 13.9249 11.4525C13.8254 11.4877 13.7199 11.5029 13.6145 11.4973C13.5091 11.4918 13.4058 11.4655 13.3105 11.42C13.2152 11.3745 13.1298 11.3107 13.0592 11.2322C12.9886 11.1538 12.9341 11.0621 12.8989 10.9626C12.8765 10.9013 12.8359 10.8483 12.7827 10.8107C12.7294 10.773 12.6659 10.7525 12.6007 10.7517H11.7328C11.6848 10.7526 11.6388 10.7709 11.6034 10.8033C11.568 10.8357 11.5457 10.88 11.5406 10.9277C11.5355 10.9754 11.5481 11.0234 11.5759 11.0625C11.6037 11.1016 11.6449 11.1292 11.6917 11.14L13.0121 11.428C13.439 11.5219 13.8212 11.7582 14.0959 12.0982C14.3706 12.4382 14.5214 12.8615 14.5234 13.2986C14.5255 13.7357 14.3788 14.1605 14.1074 14.503C13.836 14.8456 13.456 15.0857 13.0301 15.1836V15.5487C13.0301 15.7619 12.9454 15.9663 12.7947 16.117C12.644 16.2677 12.4396 16.3523 12.2265 16.3523C12.0134 16.3523 11.809 16.2677 11.6583 16.117C11.5076 15.9663 11.4229 15.7619 11.4229 15.5487V15.1849C11.1072 15.1119 10.815 14.9606 10.5732 14.7449C10.3314 14.5292 10.1478 14.256 10.0395 13.9506C9.96841 13.7496 9.98008 13.5286 10.0719 13.3361C10.1638 13.1437 10.3284 12.9957 10.5294 12.9246C10.7304 12.8535 10.9514 12.8652 11.1438 12.957C11.3362 13.0489 11.4843 13.2134 11.5554 13.4145C11.5778 13.4757 11.6184 13.5287 11.6716 13.5664C11.7249 13.604 11.7884 13.6246 11.8537 13.6253H12.6007C12.6777 13.6234 12.7514 13.5936 12.808 13.5414C12.8647 13.4892 12.9004 13.4182 12.9086 13.3416C12.9168 13.265 12.8968 13.188 12.8525 13.125C12.8081 13.062 12.7424 13.0173 12.6675 12.9992L11.3484 12.7099C10.9398 12.6208 10.5748 12.3926 10.3159 12.0641C10.057 11.7357 9.92025 11.3275 9.92906 10.9094C9.93787 10.4913 10.0917 10.0892 10.3642 9.77201C10.6367 9.45478 11.0109 9.24209 11.4229 9.17031V8.82831C11.4229 8.38346 11.7829 8.02474 12.2265 8.02474ZM16.1428 17.1057V24.4986H24.4999V23.2129C24.4999 22.5309 24.229 21.8768 23.7468 21.3946C23.2645 20.9124 22.6105 20.6415 21.9285 20.6415H19.3571V17.1057C19.3571 16.6795 19.1878 16.2707 18.8864 15.9693C18.585 15.6679 18.1762 15.4986 17.7499 15.4986C17.3237 15.4986 16.9149 15.6679 16.6135 15.9693C16.3121 16.2707 16.1428 16.6795 16.1428 17.1057Z" fill="#FFF8F8"/>
</g>
<defs>
<clipPath id="clip0_177_1602">
<rect width="18" height="18" fill="white" transform="translate(6.5 6.5)"/>
</clipPath>
</defs>
</svg>
