<svg width="31" height="31" viewBox="0 0 31 31" fill="none" xmlns="http://www.w3.org/2000/svg">
<path d="M0.5 15.5C0.5 7.21573 7.21573 0.5 15.5 0.5C23.7843 0.5 30.5 7.21573 30.5 15.5C30.5 23.7843 23.7843 30.5 15.5 30.5C7.21573 30.5 0.5 23.7843 0.5 15.5Z" fill="#64DC18"/>
<path d="M15.5 8C15.8978 8 16.2794 8.15804 16.5607 8.43934C16.842 8.72064 17 9.10218 17 9.5C17 9.89782 16.842 10.2794 16.5607 10.5607C16.2794 10.842 15.8978 11 15.5 11C15.1022 11 14.7206 10.842 14.4393 10.5607C14.158 10.2794 14 9.89782 14 9.5C14 9.10218 14.158 8.72064 14.4393 8.43934C14.7206 8.15804 15.1022 8 15.5 8ZM14.375 11.75H16.625C17.0228 11.75 17.4044 11.908 17.6857 12.1893C17.967 12.4706 18.125 12.8522 18.125 13.25V17.375H17V23H14V17.375H12.875V13.25C12.875 12.8522 13.033 12.4706 13.3143 12.1893C13.5956 11.908 13.9772 11.75 14.375 11.75Z" fill="white"/>
</svg>
