<svg width="31" height="31" viewBox="0 0 31 31" fill="none" xmlns="http://www.w3.org/2000/svg">
<path d="M0.5 15.5C0.5 7.21573 7.21573 0.5 15.5 0.5C23.7843 0.5 30.5 7.21573 30.5 15.5C30.5 23.7843 23.7843 30.5 15.5 30.5C7.21573 30.5 0.5 23.7843 0.5 15.5Z" fill="#58BDF7"/>
<path d="M15.5 16.25C14.5054 16.25 13.5516 15.8549 12.8483 15.1517C12.1451 14.4484 11.75 13.4946 11.75 12.5H13.25C13.25 13.0967 13.4871 13.669 13.909 14.091C14.331 14.5129 14.9033 14.75 15.5 14.75C16.0967 14.75 16.669 14.5129 17.091 14.091C17.5129 13.669 17.75 13.0967 17.75 12.5H19.25C19.25 13.4946 18.8549 14.4484 18.1517 15.1517C17.4484 15.8549 16.4946 16.25 15.5 16.25ZM15.5 8.75C16.0967 8.75 16.669 8.98705 17.091 9.40901C17.5129 9.83097 17.75 10.4033 17.75 11H13.25C13.25 10.4033 13.4871 9.83097 13.909 9.40901C14.331 8.98705 14.9033 8.75 15.5 8.75ZM20.75 11H19.25C19.25 10.5075 19.153 10.0199 18.9645 9.56494C18.7761 9.10997 18.4999 8.69657 18.1517 8.34835C17.8034 8.00013 17.39 7.72391 16.9351 7.53545C16.4801 7.347 15.9925 7.25 15.5 7.25C14.5054 7.25 13.5516 7.64509 12.8483 8.34835C12.1451 9.05161 11.75 10.0054 11.75 11H10.25C9.4175 11 8.75 11.6675 8.75 12.5V21.5C8.75 21.8978 8.90804 22.2794 9.18934 22.5607C9.47064 22.842 9.85218 23 10.25 23H20.75C21.1478 23 21.5294 22.842 21.8107 22.5607C22.092 22.2794 22.25 21.8978 22.25 21.5V12.5C22.25 12.1022 22.092 11.7206 21.8107 11.4393C21.5294 11.158 21.1478 11 20.75 11Z" fill="white"/>
</svg>
