<svg width="31" height="31" viewBox="0 0 31 31" fill="none" xmlns="http://www.w3.org/2000/svg">
<path d="M0.5 15.5C0.5 7.21573 7.21573 0.5 15.5 0.5C23.7843 0.5 30.5 7.21573 30.5 15.5C30.5 23.7843 23.7843 30.5 15.5 30.5C7.21573 30.5 0.5 23.7843 0.5 15.5Z" fill="#78909A"/>
<path d="M20 14.75H11V11H20M18.875 19.25C18.5766 19.25 18.2905 19.1315 18.0795 18.9205C17.8685 18.7095 17.75 18.4234 17.75 18.125C17.75 17.8266 17.8685 17.5405 18.0795 17.3295C18.2905 17.1185 18.5766 17 18.875 17C19.1734 17 19.4595 17.1185 19.6705 17.3295C19.8815 17.5405 20 17.8266 20 18.125C20 18.4234 19.8815 18.7095 19.6705 18.9205C19.4595 19.1315 19.1734 19.25 18.875 19.25ZM12.125 19.25C11.8266 19.25 11.5405 19.1315 11.3295 18.9205C11.1185 18.7095 11 18.4234 11 18.125C11 17.8266 11.1185 17.5405 11.3295 17.3295C11.5405 17.1185 11.8266 17 12.125 17C12.4234 17 12.7095 17.1185 12.9205 17.3295C13.1315 17.5405 13.25 17.8266 13.25 18.125C13.25 18.4234 13.1315 18.7095 12.9205 18.9205C12.7095 19.1315 12.4234 19.25 12.125 19.25ZM9.5 18.5C9.5 19.16 9.7925 19.7525 10.25 20.165V21.5C10.25 21.6989 10.329 21.8897 10.4697 22.0303C10.6103 22.171 10.8011 22.25 11 22.25H11.75C11.9489 22.25 12.1397 22.171 12.2803 22.0303C12.421 21.8897 12.5 21.6989 12.5 21.5V20.75H18.5V21.5C18.5 21.6989 18.579 21.8897 18.7197 22.0303C18.8603 22.171 19.0511 22.25 19.25 22.25H20C20.1989 22.25 20.3897 22.171 20.5303 22.0303C20.671 21.8897 20.75 21.6989 20.75 21.5V20.165C21.2075 19.7525 21.5 19.16 21.5 18.5V11C21.5 8.375 18.815 8 15.5 8C12.185 8 9.5 8.375 9.5 11V18.5Z" fill="#FFFAFA"/>
</svg>
