<svg width="30" height="31" viewBox="0 0 30 31" fill="none" xmlns="http://www.w3.org/2000/svg">
<path d="M0 15.5C0 7.21573 6.71573 0.5 15 0.5C23.2843 0.5 30 7.21573 30 15.5C30 23.7843 23.2843 30.5 15 30.5C6.71573 30.5 0 23.7843 0 15.5Z" fill="#AA00FF"/>
<path d="M22.082 12.5639H20.8208C20.7512 12.565 20.6845 12.5918 20.6335 12.6393C20.2308 11.9963 19.814 11.4816 19.4905 11.1582C18.3655 10.0332 11.6155 10.0332 10.4905 11.1582C10.1682 11.4811 9.75365 11.9924 9.35315 12.6308C9.30497 12.5891 9.24361 12.5658 9.1799 12.565H7.91821C7.76353 12.565 7.63696 12.6921 7.63696 12.8463V13.4144C7.63696 13.5685 7.76071 13.7181 7.91259 13.748L8.67759 13.8942C8.01721 15.3668 7.62796 17.1995 8.23996 19.0355V20.125C8.23996 20.4361 8.31871 20.6875 8.41603 20.6875H9.85715C9.95446 20.6875 10.0332 20.4361 10.0332 20.125V19.234C11.3258 19.3578 13.1551 19.4928 14.99 19.4928C16.808 19.4928 18.6575 19.36 19.9478 19.2374V20.125C19.9478 20.4361 20.0266 20.6875 20.1233 20.6875H21.5645C21.6612 20.6875 21.74 20.4361 21.74 20.125L21.7388 19.0349C22.3503 17.2011 21.9622 15.3696 21.3029 13.897L22.0859 13.748C22.1623 13.7306 22.2308 13.6884 22.2807 13.6279C22.3306 13.5674 22.359 13.4922 22.3615 13.4138V12.8457C22.3615 12.7714 22.3321 12.7001 22.2797 12.6474C22.2274 12.5947 22.1563 12.5649 22.082 12.5645V12.5639ZM9.99778 17.1353C9.73331 17.1265 9.48262 17.0153 9.29865 16.8251C9.11468 16.6349 9.01183 16.3807 9.01183 16.1161C9.01183 15.8515 9.11468 15.5972 9.29865 15.407C9.48262 15.2168 9.73331 15.1056 9.99778 15.0968C10.2622 15.1057 10.5129 15.217 10.6968 15.4072C10.8807 15.5975 10.9835 15.8517 10.9834 16.1164C10.9834 16.381 10.8804 16.6352 10.6964 16.8253C10.5124 17.0154 10.2622 17.1266 9.99778 17.1353ZM9.14053 14.216C9.68053 12.9801 10.4326 12.0126 10.8882 11.5559C11.2167 11.2268 12.767 10.877 14.99 10.877C17.213 10.877 18.7632 11.2274 19.0923 11.5565C19.5479 12.0121 20.2994 12.9796 20.8394 14.216C19.6402 14.3487 17.3041 14.0416 14.9905 14.0416C12.677 14.0416 10.3409 14.3487 9.14053 14.216ZM19.9822 17.1353C19.7177 17.1265 19.467 17.0153 19.283 16.8251C19.0991 16.6349 18.9962 16.3807 18.9962 16.1161C18.9962 15.8515 19.0991 15.5972 19.283 15.407C19.467 15.2168 19.7177 15.1056 19.9822 15.0968C20.2466 15.1057 20.4973 15.217 20.6812 15.4072C20.8651 15.5975 20.9679 15.8517 20.9678 16.1164C20.9677 16.381 20.8648 16.6352 20.6808 16.8253C20.4968 17.0154 20.2466 17.1266 19.9822 17.1353Z" fill="white"/>
</svg>
