<svg width="19" height="19" viewBox="0 0 19 19" fill="none" xmlns="http://www.w3.org/2000/svg">
<g clip-path="url(#clip0_681_1230)">
<path d="M12.5 12.5C12.5 11.6712 10.1495 11 7.25 11M12.5 12.5C12.5 13.3288 10.1495 14 7.25 14C4.3505 14 2 13.3288 2 12.5M12.5 12.5V16.2028C12.5 17.057 10.1495 17.75 7.25 17.75C4.3505 17.75 2 17.0578 2 16.2028V12.5M12.5 12.5C15.368 12.5 17.75 11.7598 17.75 11V3.5M7.25 11C4.3505 11 2 11.6712 2 12.5M7.25 11C3.9365 11 1.25 10.2598 1.25 9.5V5.75M7.25 4.25C3.9365 4.25 1.25 4.92125 1.25 5.75M1.25 5.75C1.25 6.57875 3.9365 7.25 7.25 7.25C7.25 8.00975 9.68975 8.75 12.5577 8.75C15.4257 8.75 17.75 8.00975 17.75 7.25M17.75 3.5C17.75 2.67125 15.425 2 12.5577 2C9.6905 2 7.3655 2.67125 7.3655 3.5M17.75 3.5C17.75 4.32875 15.425 5 12.5577 5C9.6905 5 7.3655 4.32875 7.3655 3.5M7.3655 3.5V11.1245" stroke="#EBEBEB" stroke-width="1.5"/>
</g>
<defs>
<clipPath id="clip0_681_1230">
<rect width="18" height="18" fill="white" transform="translate(0.5 0.5)"/>
</clipPath>
</defs>
</svg>
