<svg width="18" height="19" viewBox="0 0 18 19" fill="none" xmlns="http://www.w3.org/2000/svg">
<path d="M6.1875 11.1999C6.273 12.2731 7.12125 13.109 8.64225 13.208V14H9.31725V13.2024C10.8922 13.0921 11.8125 12.2506 11.8125 11.0289C11.8125 9.9185 11.1083 9.34587 9.84938 9.04887L9.31725 8.92287V6.76625C9.99225 6.84275 10.422 7.21175 10.5255 7.7225H11.709C11.6235 6.68863 10.737 5.87975 9.31725 5.792V5H8.64225V5.80887C7.29788 5.9405 6.381 6.74938 6.381 7.8935C6.381 8.906 7.06275 9.5495 8.19562 9.81388L8.64225 9.92412V12.2124C7.95038 12.1078 7.4925 11.7286 7.389 11.1999H6.1875ZM8.63663 8.76312C7.97288 8.609 7.61288 8.29512 7.61288 7.82262C7.61288 7.29387 8.001 6.89788 8.64225 6.782V8.762L8.63663 8.76312ZM9.41513 10.1053C10.2218 10.292 10.5941 10.5946 10.5941 11.129C10.5941 11.7387 10.1306 12.1573 9.31725 12.2338V10.0827L9.41513 10.1053Z" fill="#575757"/>
<path d="M9 17.375C6.91142 17.375 4.90838 16.5453 3.43153 15.0685C1.95468 13.5916 1.125 11.5886 1.125 9.5C1.125 7.41142 1.95468 5.40838 3.43153 3.93153C4.90838 2.45468 6.91142 1.625 9 1.625C11.0886 1.625 13.0916 2.45468 14.5685 3.93153C16.0453 5.40838 16.875 7.41142 16.875 9.5C16.875 11.5886 16.0453 13.5916 14.5685 15.0685C13.0916 16.5453 11.0886 17.375 9 17.375ZM9 18.5C11.3869 18.5 13.6761 17.5518 15.364 15.864C17.0518 14.1761 18 11.8869 18 9.5C18 7.11305 17.0518 4.82387 15.364 3.13604C13.6761 1.44821 11.3869 0.5 9 0.5C6.61305 0.5 4.32387 1.44821 2.63604 3.13604C0.948212 4.82387 0 7.11305 0 9.5C0 11.8869 0.948212 14.1761 2.63604 15.864C4.32387 17.5518 6.61305 18.5 9 18.5Z" fill="#575757"/>
<path d="M9 15.6875C7.35897 15.6875 5.78516 15.0356 4.62478 13.8752C3.4644 12.7148 2.8125 11.141 2.8125 9.5C2.8125 7.85897 3.4644 6.28516 4.62478 5.12478C5.78516 3.9644 7.35897 3.3125 9 3.3125C10.641 3.3125 12.2148 3.9644 13.3752 5.12478C14.5356 6.28516 15.1875 7.85897 15.1875 9.5C15.1875 11.141 14.5356 12.7148 13.3752 13.8752C12.2148 15.0356 10.641 15.6875 9 15.6875ZM9 16.25C9.88642 16.25 10.7642 16.0754 11.5831 15.7362C12.4021 15.397 13.1462 14.8998 13.773 14.273C14.3998 13.6462 14.897 12.9021 15.2362 12.0831C15.5754 11.2642 15.75 10.3864 15.75 9.5C15.75 8.61358 15.5754 7.73583 15.2362 6.91689C14.897 6.09794 14.3998 5.35382 13.773 4.72703C13.1462 4.10023 12.4021 3.60303 11.5831 3.26381C10.7642 2.92459 9.88642 2.75 9 2.75C7.20979 2.75 5.4929 3.46116 4.22703 4.72703C2.96116 5.9929 2.25 7.70979 2.25 9.5C2.25 11.2902 2.96116 13.0071 4.22703 14.273C5.4929 15.5388 7.20979 16.25 9 16.25Z" fill="#575757"/>
</svg>
