<svg width="18" height="19" viewBox="0 0 18 19" fill="none" xmlns="http://www.w3.org/2000/svg">
<path d="M5.25 2H12.75C13.1478 2 13.5294 2.15804 13.8107 2.43934C14.092 2.72064 14.25 3.10218 14.25 3.5V15.5C14.25 15.8978 14.092 16.2794 13.8107 16.5607C13.5294 16.842 13.1478 17 12.75 17H5.25C4.85218 17 4.47064 16.842 4.18934 16.5607C3.90804 16.2794 3.75 15.8978 3.75 15.5V3.5C3.75 3.10218 3.90804 2.72064 4.18934 2.43934C4.47064 2.15804 4.85218 2 5.25 2ZM5.25 3.5V6.5H12.75V3.5H5.25ZM5.25 8V9.5H6.75V8H5.25ZM8.25 8V9.5H9.75V8H8.25ZM11.25 8V9.5H12.75V8H11.25ZM5.25 11V12.5H6.75V11H5.25ZM8.25 11V12.5H9.75V11H8.25ZM11.25 11V12.5H12.75V11H11.25ZM5.25 14V15.5H6.75V14H5.25ZM8.25 14V15.5H9.75V14H8.25ZM11.25 14V15.5H12.75V14H11.25Z" fill="#575757"/>
</svg>
