<svg width="19" height="19" viewBox="0 0 19 19" fill="none" xmlns="http://www.w3.org/2000/svg">
<path d="M14.75 5.75H14V5C14 4.40326 13.7629 3.83097 13.341 3.40901C12.919 2.98705 12.3467 2.75 11.75 2.75H4.25C3.65326 2.75 3.08097 2.98705 2.65901 3.40901C2.23705 3.83097 2 4.40326 2 5V14C2 14.5967 2.23705 15.169 2.65901 15.591C3.08097 16.0129 3.65326 16.25 4.25 16.25H14.75C15.3467 16.25 15.919 16.0129 16.341 15.591C16.7629 15.169 17 14.5967 17 14V8C17 7.40326 16.7629 6.83097 16.341 6.40901C15.919 5.98705 15.3467 5.75 14.75 5.75ZM4.25 4.25H11.75C11.9489 4.25 12.1397 4.32902 12.2803 4.46967C12.421 4.61032 12.5 4.80109 12.5 5V5.75H4.25C4.05109 5.75 3.86032 5.67098 3.71967 5.53033C3.57902 5.38968 3.5 5.19891 3.5 5C3.5 4.80109 3.57902 4.61032 3.71967 4.46967C3.86032 4.32902 4.05109 4.25 4.25 4.25ZM15.5 11.75H14.75C14.5511 11.75 14.3603 11.671 14.2197 11.5303C14.079 11.3897 14 11.1989 14 11C14 10.8011 14.079 10.6103 14.2197 10.4697C14.3603 10.329 14.5511 10.25 14.75 10.25H15.5V11.75ZM15.5 8.75H14.75C14.1533 8.75 13.581 8.98705 13.159 9.40901C12.7371 9.83097 12.5 10.4033 12.5 11C12.5 11.5967 12.7371 12.169 13.159 12.591C13.581 13.0129 14.1533 13.25 14.75 13.25H15.5V14C15.5 14.1989 15.421 14.3897 15.2803 14.5303C15.1397 14.671 14.9489 14.75 14.75 14.75H4.25C4.05109 14.75 3.86032 14.671 3.71967 14.5303C3.57902 14.3897 3.5 14.1989 3.5 14V7.1225C3.74095 7.20726 3.99458 7.25038 4.25 7.25H14.75C14.9489 7.25 15.1397 7.32902 15.2803 7.46967C15.421 7.61032 15.5 7.80109 15.5 8V8.75Z" fill="#EBEBEB"/>
</svg>
