<svg width="19" height="19" viewBox="0 0 19 19" fill="none" xmlns="http://www.w3.org/2000/svg">
<g clip-path="url(#clip0_681_1223)">
<path d="M4.3985 17.375H8.6015L8.93525 15.875H10.8148L11.1485 17.375H15.3515L15.8255 15.2428C18.563 12.947 19.343 8.95026 17.495 5.74926C17.325 5.45676 17.14 5.17975 16.94 4.91825C16.98 4.70025 17 4.47751 17 4.25001C16.9999 3.46224 16.7517 2.69451 16.2907 2.05575C15.8296 1.417 15.1791 0.939659 14.4315 0.691467C13.6838 0.443275 12.877 0.436836 12.1255 0.673064C11.374 0.909292 10.7159 1.37619 10.2448 2.00751C9.23675 2.07051 8.21975 2.30901 7.241 2.72301L6.551 3.01551L7.1345 4.39626L7.82525 4.10375C8.38112 3.86776 8.96251 3.69712 9.55775 3.59526C9.51925 3.80826 9.5 4.02651 9.5 4.25001C9.49998 5.03273 9.74489 5.79585 10.2004 6.43238C10.6559 7.06892 11.2992 7.54697 12.04 7.79952C12.7809 8.05207 13.5822 8.06646 14.3317 7.84068C15.0812 7.6149 15.7412 7.16027 16.2192 6.5405C16.9296 7.79289 17.1658 9.25895 16.885 10.6711C16.6041 12.0832 15.8248 13.3473 14.6893 14.2325L14.477 14.3983L14.1485 15.8758H12.3515L12.0185 14.3758H7.7315L7.3985 15.8758H5.6015L5.09975 13.6183L4.724 13.4743C3.926 13.1683 2.80175 12.5218 2 11.8018V8.375H2.7995L4.33475 5.81751L3.83375 4.56426C4.43825 4.64226 5.135 4.94001 5.7845 5.65476L6.28925 6.20975L7.39925 5.20026L6.8945 4.64526C5.47475 3.08376 3.767 2.86776 2.5805 3.14451L1.72925 3.34251L2.66525 5.68251L1.9505 6.875H0.5V12.437L0.72125 12.6568C1.58375 13.5148 2.8175 14.2768 3.8075 14.717L4.3985 17.375ZM4.625 9.125H6.128V7.62051H4.625V9.125ZM13.25 6.50001C12.6533 6.50001 12.081 6.26295 11.659 5.841C11.2371 5.41904 11 4.84674 11 4.25001C11 3.65327 11.2371 3.08097 11.659 2.65902C12.081 2.23706 12.6533 2.00001 13.25 2.00001C13.8467 2.00001 14.419 2.23706 14.841 2.65902C15.2629 3.08097 15.5 3.65327 15.5 4.25001C15.5 4.84674 15.2629 5.41904 14.841 5.841C14.419 6.26295 13.8467 6.50001 13.25 6.50001Z" fill="#EBEBEB"/>
</g>
<defs>
<clipPath id="clip0_681_1223">
<rect width="18" height="18" fill="white" transform="translate(0.5 0.5)"/>
</clipPath>
</defs>
</svg>
