<svg width="30" height="30" viewBox="0 0 30 30" fill="none" xmlns="http://www.w3.org/2000/svg">
<path d="M0 15C0 6.71573 6.71573 0 15 0C23.2843 0 30 6.71573 30 15C30 23.2843 23.2843 30 15 30C6.71573 30 0 23.2843 0 15Z" fill="#4391DE"/>
<path d="M10.5 13.5H13.5" stroke="#E8F2FB" stroke-width="1.5" stroke-linecap="round" stroke-linejoin="round"/>
<path d="M21.625 14.25H19.6731C18.3348 14.25 17.25 15.2574 17.25 16.5C17.25 17.7426 18.3348 18.75 19.6731 18.75H21.625C21.6875 18.75 21.7187 18.75 21.7451 18.7484C22.1496 18.7238 22.4718 18.4246 22.4983 18.0491C22.5 18.0246 22.5 17.9955 22.5 17.9375V15.0625C22.5 15.0045 22.5 14.9754 22.4983 14.9509C22.4718 14.5754 22.1496 14.2762 21.7451 14.2516C21.7187 14.25 21.6875 14.25 21.625 14.25Z" stroke="#E8F2FB" stroke-width="1.5"/>
<path d="M21.7238 14.25C21.6655 12.8458 21.4775 11.9848 20.8713 11.3787C19.9926 10.5 18.5784 10.5 15.75 10.5H13.5C10.6716 10.5 9.25736 10.5 8.37868 11.3787C7.5 12.2574 7.5 13.6716 7.5 16.5C7.5 19.3284 7.5 20.7426 8.37868 21.6213C9.25736 22.5 10.6716 22.5 13.5 22.5H15.75C18.5784 22.5 19.9926 22.5 20.8713 21.6213C21.4775 21.0152 21.6655 20.1542 21.7238 18.75" stroke="#E8F2FB" stroke-width="1.5"/>
<path d="M10.5 10.5L13.3016 8.64235C14.0906 8.11922 15.1594 8.11922 15.9484 8.64235L18.75 10.5" stroke="#E8F2FB" stroke-width="1.5" stroke-linecap="round"/>
<path d="M19.4934 16.5H19.5002" stroke="#E8F2FB" stroke-width="2" stroke-linecap="round" stroke-linejoin="round"/>
</svg>
