<svg width="19" height="19" viewBox="0 0 19 19" fill="none" xmlns="http://www.w3.org/2000/svg">
<g clip-path="url(#clip0_529_1445)">
<path d="M18.5 3.3125C18.5 3.94531 17.9973 4.52891 17.15 5C16.127 5.56602 14.6012 5.9668 12.8504 6.08633C12.7203 6.02305 12.5902 5.96328 12.4531 5.91055C11.068 5.33047 9.22578 5 7.25 5C6.9582 5 6.67344 5.00703 6.38867 5.02109L6.35 5C5.50273 4.52891 5 3.94531 5 3.3125C5 1.75859 8.02344 0.5 11.75 0.5C15.4766 0.5 18.5 1.75859 18.5 3.3125ZM6.14961 6.16367C6.5082 6.13906 6.87734 6.125 7.25 6.125C9.43672 6.125 11.3773 6.55742 12.6113 7.22891C13.4832 7.70352 14 8.29414 14 8.9375C14 9.07812 13.9754 9.21523 13.9262 9.34883C13.7645 9.81289 13.3285 10.2383 12.6957 10.5969C12.6922 10.6004 12.6852 10.6004 12.6816 10.6039C12.6711 10.6109 12.6605 10.6145 12.65 10.6215C11.4195 11.3035 9.45781 11.7465 7.25 11.7465C5.15469 11.7465 3.28086 11.3492 2.03984 10.7234C1.97305 10.6918 1.90977 10.6566 1.84648 10.6215C1.00273 10.1539 0.5 9.57031 0.5 8.9375C0.5 7.71406 2.37734 6.66992 5 6.28672C5.36914 6.23398 5.75234 6.1918 6.14961 6.16367ZM15.125 8.9375C15.125 8.16758 14.7523 7.53477 14.2777 7.06016C15.2727 6.90547 16.1832 6.65938 16.9566 6.33945C17.5297 6.10039 18.0641 5.80508 18.5 5.44297V6.6875C18.5 7.36602 17.9199 7.9918 16.9602 8.47695C16.4469 8.73711 15.8211 8.95859 15.118 9.12734C15.1215 9.06406 15.125 9.0043 15.125 8.94102V8.9375ZM14 12.3125C14 12.9453 13.4973 13.5289 12.65 14C12.5867 14.0352 12.5234 14.0668 12.4566 14.102C11.2191 14.7277 9.34531 15.125 7.25 15.125C5.04219 15.125 3.08047 14.682 1.85 14C1.00273 13.5289 0.5 12.9453 0.5 12.3125V11.068C0.939453 11.4301 1.47031 11.7254 2.04336 11.9645C3.43203 12.5445 5.27422 12.875 7.25 12.875C9.22578 12.875 11.068 12.5445 12.4566 11.9645C12.7309 11.852 12.9945 11.7219 13.2441 11.5813C13.4586 11.4617 13.659 11.3281 13.8488 11.1875C13.9016 11.1488 13.9508 11.1066 14 11.068V12.3125ZM15.125 12.3125V10.277C15.793 10.1293 16.4082 9.94297 16.9566 9.71445C17.5297 9.47539 18.0641 9.18008 18.5 8.81797V10.0625C18.5 10.4316 18.3242 10.8008 17.9762 11.1488C17.4031 11.7219 16.3941 12.193 15.118 12.4988C15.1215 12.4391 15.125 12.3758 15.125 12.3125ZM7.25 16.25C9.22578 16.25 11.068 15.9195 12.4566 15.3395C13.0297 15.1004 13.5641 14.8051 14 14.443V15.6875C14 17.2414 10.9766 18.5 7.25 18.5C3.52344 18.5 0.5 17.2414 0.5 15.6875V14.443C0.939453 14.8051 1.47031 15.1004 2.04336 15.3395C3.43203 15.9195 5.27422 16.25 7.25 16.25Z" fill="#575757"/>
</g>
<defs>
<clipPath id="clip0_529_1445">
<rect width="18" height="18" fill="white" transform="translate(0.5 0.5)"/>
</clipPath>
</defs>
</svg>
